HIERARCHY
ROOT Hips
{
	OFFSET 0.000000 71.427986 0.000000
	CHANNELS 6 Xposition Yposition Zposition Xrotation Yrotation Zrotation
	JOINT Pelvis
	{
		OFFSET 0.000000 0.000000 0.000000
		CHANNELS 3 Xrotation Yrotation Zrotation
		JOINT LeftUpLeg
		{
			OFFSET 6.797100 -2.508499 -1.318700
			CHANNELS 3 Xrotation Yrotation Zrotation
			JOINT LeftLeg
			{
				OFFSET 0.069008 -29.241863 0.690200
				CHANNELS 3 Xrotation Yrotation Zrotation
				JOINT LeftFoot
				{
					OFFSET -0.069008 -29.568123 -0.266800
					CHANNELS 3 Xrotation Yrotation Zrotation
					JOINT LeftToeBase
					{
						OFFSET 3.145500 -8.631000 16.059900
						CHANNELS 3 Xrotation Yrotation Zrotation
						End Site
						{
							OFFSET 0.000000 18.501587 0.000000
						}
					}
				}
			}
			JOINT Left_ShortSleeve
			{
				OFFSET 0.265923 -10.480953 1.153800
				CHANNELS 3 Xrotation Yrotation Zrotation
				End Site
				{
					OFFSET 1.725763 19.823879 0.000000
				}
			}
		}
		JOINT RightUpLeg
		{
			OFFSET -6.797100 -2.508499 -1.318700
			CHANNELS 3 Xrotation Yrotation Zrotation
			JOINT RightLeg
			{
				OFFSET -0.082453 -29.241932 0.688000
				CHANNELS 3 Xrotation Yrotation Zrotation
				JOINT RightFoot
				{
					OFFSET 0.082453 -29.568058 -0.264600
					CHANNELS 3 Xrotation Yrotation Zrotation
					JOINT RightToeBase
					{
						OFFSET -3.115300 -8.682800 16.113400
						CHANNELS 3 Xrotation Yrotation Zrotation
						End Site
						{
							OFFSET 0.000000 18.567114 0.000000
						}
					}
				}
			}
			JOINT Right_ShortSleeve
			{
				OFFSET -0.265923 -10.480953 1.153800
				CHANNELS 3 Xrotation Yrotation Zrotation
				End Site
				{
					OFFSET -1.725766 19.823910 0.000000
				}
			}
		}
	}
	JOINT Spine
	{
		OFFSET 0.000000 13.368103 0.470500
		CHANNELS 3 Xrotation Yrotation Zrotation
		JOINT Spine1
		{
			OFFSET 0.147000 13.837402 0.538800
			CHANNELS 3 Xrotation Yrotation Zrotation
			JOINT Spine2
			{
				OFFSET 0.168000 16.242897 -1.435500
				CHANNELS 3 Xrotation Yrotation Zrotation
				JOINT Neck
				{
					OFFSET 0.217200 18.631500 -1.679100
					CHANNELS 3 Xrotation Yrotation Zrotation
					JOINT Head
					{
						OFFSET 0.000000 6.599396 1.385900
						CHANNELS 3 Xrotation Yrotation Zrotation
						JOINT Hat
						{
							OFFSET -0.532200 27.220596 -10.096100
							CHANNELS 3 Xrotation Yrotation Zrotation
							End Site
							{
								OFFSET 0.000000 22.029861 0.000000
							}
						}
						JOINT HairD
						{
							OFFSET -10.777400 17.437393 -1.325900
							CHANNELS 3 Xrotation Yrotation Zrotation
							JOINT HairD1
							{
								OFFSET -3.290299 -11.051193 1.062200
								CHANNELS 3 Xrotation Yrotation Zrotation
								End Site
								{
									OFFSET 0.000000 11.579437 0.000000
								}
							}
						}
						JOINT HairB
						{
							OFFSET -10.777400 17.437393 1.467900
							CHANNELS 3 Xrotation Yrotation Zrotation
							JOINT HairB1
							{
								OFFSET -1.561200 -12.956299 3.590200
								CHANNELS 3 Xrotation Yrotation Zrotation
								End Site
								{
									OFFSET 0.000000 13.534866 0.000000
								}
							}
						}
						JOINT HairA
						{
							OFFSET 9.713100 17.437393 1.467900
							CHANNELS 3 Xrotation Yrotation Zrotation
							JOINT HairA1
							{
								OFFSET 1.561200 -12.956299 3.590200
								CHANNELS 3 Xrotation Yrotation Zrotation
								End Site
								{
									OFFSET 0.000000 13.534866 0.000000
								}
							}
						}
						JOINT HairC
						{
							OFFSET 9.713100 17.437393 -1.325900
							CHANNELS 3 Xrotation Yrotation Zrotation
							JOINT HairC1
							{
								OFFSET 3.290300 -11.051193 1.062200
								CHANNELS 3 Xrotation Yrotation Zrotation
								End Site
								{
									OFFSET 0.000000 11.579437 0.000000
								}
							}
						}
					}
				}
				JOINT LeftShoulder
				{
					OFFSET 5.101800 15.108002 -2.763700
					CHANNELS 3 Xrotation Yrotation Zrotation
					JOINT LeftArm
					{
						OFFSET 9.825497 2.506317 -1.597400
						CHANNELS 3 Xrotation Yrotation Zrotation
						JOINT LeftForeArm
						{
							OFFSET 21.966244 0.000000 0.000000
							CHANNELS 3 Xrotation Yrotation Zrotation
							JOINT LeftHand
							{
								OFFSET 33.879036 0.000000 0.000000
								CHANNELS 3 Xrotation Yrotation Zrotation
								JOINT LeftHandThumb1
								{
									OFFSET 6.715286 -2.359680 3.363841
									CHANNELS 3 Xrotation Yrotation Zrotation
									JOINT LeftHandThumb2
									{
										OFFSET 2.507072 -1.447464 1.447461
										CHANNELS 3 Xrotation Yrotation Zrotation
										JOINT LeftHandThumb3
										{
											OFFSET 2.898338 -1.673355 1.673357
											CHANNELS 3 Xrotation Yrotation Zrotation
											End Site
											{
												OFFSET -0.295959 3.727692 -0.131651
											}
										}
									}
								}
								JOINT LeftHandIndex1
								{
									OFFSET 14.190811 -0.254547 3.840278
									CHANNELS 3 Xrotation Yrotation Zrotation
									JOINT LeftHandIndex2
									{
										OFFSET 3.551727 0.000000 -0.000000
										CHANNELS 3 Xrotation Yrotation Zrotation
										JOINT LeftHandIndex3
										{
											OFFSET 2.894196 0.000000 0.000000
											CHANNELS 3 Xrotation Yrotation Zrotation
											End Site
											{
												OFFSET -1.000603 2.690872 0.366626
											}
										}
									}
								}
								JOINT LeftHandMiddle1
								{
									OFFSET 13.776489 0.000000 0.000000
									CHANNELS 3 Xrotation Yrotation Zrotation
									JOINT LeftHandMiddle2
									{
										OFFSET 3.438232 0.000000 0.000000
										CHANNELS 3 Xrotation Yrotation Zrotation
										JOINT LeftHandMiddle3
										{
											OFFSET 3.691551 0.000000 0.000000
											CHANNELS 3 Xrotation Yrotation Zrotation
											End Site
											{
												OFFSET -1.082298 3.499527 0.457670
											}
										}
									}
								}
								JOINT LeftHandRing1
								{
									OFFSET 13.966164 -0.268127 -3.067488
									CHANNELS 3 Xrotation Yrotation Zrotation
									JOINT LeftHandRing2
									{
										OFFSET 3.162567 0.000000 0.000000
										CHANNELS 3 Xrotation Yrotation Zrotation
										JOINT LeftHandRing3
										{
											OFFSET 3.324348 0.000000 0.000000
											CHANNELS 3 Xrotation Yrotation Zrotation
											End Site
											{
												OFFSET -0.861900 3.184998 0.405154
											}
										}
									}
								}
								JOINT LeftHandPinky1
								{
									OFFSET 13.131393 -0.168503 -5.746925
									CHANNELS 3 Xrotation Yrotation Zrotation
									JOINT LeftHandPinky2
									{
										OFFSET 2.849182 0.000000 0.000000
										CHANNELS 3 Xrotation Yrotation Zrotation
										JOINT LeftHandPinky3
										{
											OFFSET 2.805038 0.000000 0.000000
											CHANNELS 3 Xrotation Yrotation Zrotation
											End Site
											{
												OFFSET -0.882500 2.642609 0.325652
											}
										}
									}
								}
							}
							JOINT Left_Sleeve
							{
								OFFSET 6.592125 -0.646545 0.805568
								CHANNELS 3 Xrotation Yrotation Zrotation
								End Site
								{
									OFFSET -0.000179 20.275787 -0.000000
								}
							}
						}
					}
				}
				JOINT RightShoulder
				{
					OFFSET -5.731700 15.108002 -2.763700
					CHANNELS 3 Xrotation Yrotation Zrotation
					JOINT RightArm
					{
						OFFSET -9.825497 2.506317 -1.597400
						CHANNELS 3 Xrotation Yrotation Zrotation
						JOINT RightForeArm
						{
							OFFSET -21.966242 0.000000 0.000000
							CHANNELS 3 Xrotation Yrotation Zrotation
							JOINT RightHand
							{
								OFFSET -33.879032 0.000000 0.000000
								CHANNELS 3 Xrotation Yrotation Zrotation
								JOINT RightHandThumb1
								{
									OFFSET -6.715286 -2.359680 3.363841
									CHANNELS 3 Xrotation Yrotation Zrotation
									JOINT RightHandThumb2
									{
										OFFSET -2.507072 -1.447464 1.447461
										CHANNELS 3 Xrotation Yrotation Zrotation
										JOINT RightHandThumb3
										{
											OFFSET -2.898338 -1.673355 1.673357
											CHANNELS 3 Xrotation Yrotation Zrotation
											End Site
											{
												OFFSET 0.295959 3.727692 -0.131651
											}
										}
									}
								}
								JOINT RightHandIndex1
								{
									OFFSET -14.190811 -0.254547 3.840278
									CHANNELS 3 Xrotation Yrotation Zrotation
									JOINT RightHandIndex2
									{
										OFFSET -3.551727 0.000000 -0.000000
										CHANNELS 3 Xrotation Yrotation Zrotation
										JOINT RightHandIndex3
										{
											OFFSET -2.894196 0.000000 0.000000
											CHANNELS 3 Xrotation Yrotation Zrotation
											End Site
											{
												OFFSET 1.000603 2.690872 0.366626
											}
										}
									}
								}
								JOINT RightHandMiddle1
								{
									OFFSET -13.776489 0.000000 0.000000
									CHANNELS 3 Xrotation Yrotation Zrotation
									JOINT RightHandMiddle2
									{
										OFFSET -3.438232 0.000000 0.000000
										CHANNELS 3 Xrotation Yrotation Zrotation
										JOINT RightHandMiddle3
										{
											OFFSET -3.691551 0.000000 0.000000
											CHANNELS 3 Xrotation Yrotation Zrotation
											End Site
											{
												OFFSET 1.082298 3.499527 0.457670
											}
										}
									}
								}
								JOINT RightHandRing1
								{
									OFFSET -13.966164 -0.268127 -3.067488
									CHANNELS 3 Xrotation Yrotation Zrotation
									JOINT RightHandRing2
									{
										OFFSET -3.162567 0.000000 0.000000
										CHANNELS 3 Xrotation Yrotation Zrotation
										JOINT RightHandRing3
										{
											OFFSET -3.324348 0.000000 0.000000
											CHANNELS 3 Xrotation Yrotation Zrotation
											End Site
											{
												OFFSET 0.861900 3.184998 0.405154
											}
										}
									}
								}
								JOINT RightHandPinky1
								{
									OFFSET -13.131393 -0.168503 -5.746925
									CHANNELS 3 Xrotation Yrotation Zrotation
									JOINT RightHandPinky2
									{
										OFFSET -2.849182 0.000000 0.000000
										CHANNELS 3 Xrotation Yrotation Zrotation
										JOINT RightHandPinky3
										{
											OFFSET -2.805038 0.000000 0.000000
											CHANNELS 3 Xrotation Yrotation Zrotation
											End Site
											{
												OFFSET 0.882500 2.642609 0.325652
											}
										}
									}
								}
							}
							JOINT Right_Sleeve
							{
								OFFSET -6.592125 -0.646545 0.805568
								CHANNELS 3 Xrotation Yrotation Zrotation
								End Site
								{
									OFFSET 0.000179 20.275787 -0.000000
								}
							}
						}
					}
				}
				JOINT Bind_Right_JacketString
				{
					OFFSET -3.534800 11.969597 7.200700
					CHANNELS 3 Xrotation Yrotation Zrotation
					JOINT Bind_Right_JacketString1
					{
						OFFSET -0.319900 -6.102600 2.794100
						CHANNELS 3 Xrotation Yrotation Zrotation
						End Site
						{
							OFFSET 0.000000 6.719452 0.000000
						}
					}
				}
				JOINT Bind_Left_JacketString
				{
					OFFSET 2.904800 11.969597 7.200700
					CHANNELS 3 Xrotation Yrotation Zrotation
					JOINT Bind_Left_JacketString1
					{
						OFFSET 0.364800 -5.904503 3.186800
						CHANNELS 3 Xrotation Yrotation Zrotation
						End Site
						{
							OFFSET 0.000000 6.719513 0.000000
						}
					}
				}
				JOINT HairE
				{
					OFFSET 5.915200 17.612701 -11.592200
					CHANNELS 3 Xrotation Yrotation Zrotation
					JOINT HairE1
					{
						OFFSET 0.289200 -7.171898 -1.284500
						CHANNELS 3 Xrotation Yrotation Zrotation
						End Site
						{
							OFFSET 0.000000 7.291756 0.000000
						}
					}
				}
				JOINT HairF
				{
					OFFSET -0.864800 17.612701 -11.592200
					CHANNELS 3 Xrotation Yrotation Zrotation
					JOINT HairF1
					{
						OFFSET 0.000000 -14.087097 -2.127501
						CHANNELS 3 Xrotation Yrotation Zrotation
						End Site
						{
							OFFSET 0.000000 14.246841 0.000000
						}
					}
				}
				JOINT HairG
				{
					OFFSET -8.087700 17.612701 -11.592200
					CHANNELS 3 Xrotation Yrotation Zrotation
					JOINT HairG1
					{
						OFFSET -0.293600 -6.081398 -0.910100
						CHANNELS 3 Xrotation Yrotation Zrotation
						End Site
						{
							OFFSET 0.000000 6.156120 0.000000
						}
					}
				}
			}
		}
	}
	JOINT Pouch
	{
		OFFSET 0.000000 4.394501 10.847300
		CHANNELS 3 Xrotation Yrotation Zrotation
		End Site
		{
			OFFSET 0.000000 21.880577 0.000000
		}
	}
	JOINT Bag
	{
		OFFSET -13.229000 4.813004 -0.593300
		CHANNELS 3 Xrotation Yrotation Zrotation
		End Site
		{
			OFFSET 0.000000 21.880577 0.000000
		}
	}
	JOINT OccupyGuyFacialAnim_Joint
	{
		OFFSET 1.000000 -70.206398 -1.655000
		CHANNELS 3 Xrotation Yrotation Zrotation
		End Site
		{
			OFFSET 0.000000 21.880577 0.000000
		}
	}
}
MOTION
Frames: 4
Frame Time: 0.033333
-0.045456 70.968521 1.522022 -4.056155 6.164248 -1.782894 0.000000 -0.000000 -0.000000 -0.016931 11.430912 10.282881 10.019535 -6.794970 0.206310 -7.186617 0.793666 -6.682515 -0.000000 0.000000 0.000000 -0.000000 -0.000001 0.000001 1.678418 -5.866502 1.907301 9.099448 3.441630 -0.554401 -6.521515 0.013975 0.215390 0.000000 0.000000 0.000000 0.000000 -0.000000 -0.000000 4.903514 -0.349259 1.239667 5.814356 -0.121266 1.891508 -4.300229 -0.608024 -1.115062 1.349760 -1.122414 0.966707 4.179564 -0.441368 -1.260437 -0.000000 0.000000 -0.000000 -0.000000 0.000000 -0.000000 -0.000000 0.000000 -0.000000 -0.000000 0.000000 -0.000000 -0.000000 0.000000 -0.000000 -0.000000 0.000000 -0.000000 -0.000000 0.000000 -0.000000 -0.000000 0.000000 -0.000000 -0.000000 0.000000 -0.000000 1.687481 -7.781267 -3.495019 -0.668318 -2.003198 -76.953781 6.346353 -10.913257 1.752437 -0.215973 -0.740225 3.407045 -3.781481 8.459559 12.343374 7.442656 11.616499 -1.294573 -0.000000 0.000001 -0.000001 2.384555 3.620192 -6.815250 0.005227 0.255950 -17.103330 0.000004 0.000001 0.000002 -1.935817 5.644709 -11.386929 0.107489 0.657045 -24.767582 -0.000001 -0.000000 0.000001 -4.873170 10.020081 -7.875067 -0.048607 0.340195 -30.086369 -0.000002 0.000000 -0.000002 -6.437551 11.282625 -19.770674 0.076407 0.235021 -30.858279 -0.000000 -0.000001 0.000003 -0.000001 0.000000 -0.000001 2.097492 10.214042 4.097357 1.438916 3.708300 75.271861 15.720804 15.344213 -4.557372 -4.674638 -0.556315 -0.689571 -0.464317 -8.992053 -6.084583 7.448802 -11.621055 1.292431 -0.000002 -0.000001 -0.000001 2.358557 -3.637811 8.333304 0.025664 -0.227450 18.622197 0.000001 0.000000 0.000002 -1.983705 -5.671331 13.530208 0.101890 -0.662556 26.913669 0.000003 -0.000001 -0.000001 -4.977756 -10.097262 10.695990 -0.009214 -0.275340 32.924217 -0.000000 -0.000001 -0.000002 -6.473899 -11.320053 23.225973 0.063011 -0.210825 34.318497 -0.000000 0.000001 0.000001 -0.000001 0.000000 -0.000002 0.000000 -0.000000 0.000000 0.000000 -0.000000 0.000000 0.000000 -0.000000 -0.000000 0.000000 -0.000000 -0.000000 0.000000 -0.000000 0.000000 0.000000 -0.000000 0.000000 0.000000 -0.000000 -0.000000 0.000000 -0.000000 -0.000000 0.000000 -0.000000 0.000000 0.000000 -0.000000 0.000000 0.000000 -0.000000 -0.000000 0.000000 -0.000000 -0.000000 0.000000 -0.000000 -0.000000 
0.150598 70.917938 1.598855 -3.815584 6.068049 -1.876814 0.000000 0.000000 0.000000 -0.726318 11.303936 10.277307 11.269853 -6.602468 0.219780 -7.942818 0.735650 -6.474361 0.000000 0.000001 -0.000000 -0.000000 0.000001 -0.000000 1.137899 -5.862802 1.740763 9.802742 3.557598 -0.548041 -6.929209 -0.015103 0.368534 0.000000 0.000000 0.000000 0.000000 0.000000 -0.000000 4.954438 -0.277712 1.268424 5.813400 -0.051021 1.816824 -4.262331 -0.530561 -1.172283 1.252518 -1.217388 1.227656 3.843035 -0.450882 -1.255176 0.000001 0.000000 0.000000 0.000001 0.000000 0.000000 0.000001 0.000000 0.000000 0.000001 0.000000 0.000000 0.000001 0.000000 0.000000 0.000001 0.000000 0.000000 0.000001 0.000000 0.000000 0.000001 0.000000 0.000000 0.000001 0.000000 0.000000 1.735491 -7.785814 -3.144751 -0.443178 -1.639130 -76.882863 6.462181 -10.785530 1.726455 -0.187737 -0.885623 3.174887 -3.810206 8.511970 12.342088 7.371945 11.582329 -1.210772 -0.000001 0.000002 0.000000 2.397848 3.524775 -6.520600 0.004846 0.255593 -16.686495 0.000000 0.000001 -0.000002 -1.890749 5.544134 -11.094993 0.103677 0.645780 -24.287541 0.000001 -0.000000 0.000000 -4.774578 9.879845 -7.372469 -0.048794 0.336862 -29.590299 -0.000002 0.000001 -0.000003 -6.353477 11.112819 -18.810947 0.075070 0.233102 -30.394967 0.000001 -0.000001 0.000001 -0.000001 0.000000 0.000001 2.086247 10.145636 4.162826 1.709518 4.965110 74.775764 15.598202 15.625357 -4.995954 -5.819075 -0.712048 -0.326802 -0.093364 -9.245593 -6.264604 7.418685 -11.623291 1.241198 0.000002 -0.000001 0.000000 2.356562 -3.638884 8.956117 0.026242 -0.227972 19.257431 -0.000000 0.000000 -0.000001 -1.997482 -5.675044 14.156012 0.105344 -0.664885 27.553340 -0.000000 -0.000002 -0.000001 -4.998640 -10.100269 11.315514 -0.008748 -0.279617 33.568095 0.000001 0.000000 0.000002 -6.504324 -11.325044 23.852088 0.065071 -0.213359 34.961215 -0.000000 0.000000 -0.000003 0.000003 -0.000002 0.000001 -0.000000 0.000000 0.000000 -0.000000 0.000000 0.000000 -0.000000 0.000000 0.000000 -0.000000 0.000000 0.000000 -0.000000 0.000000 0.000000 -0.000000 0.000000 0.000000 -0.000000 0.000000 0.000000 -0.000000 0.000000 0.000000 -0.000000 0.000000 0.000000 -0.000000 0.000000 0.000000 0.000000 0.000000 0.000000 0.000000 0.000000 0.000000 0.000000 0.000000 0.000000 
0.405205 70.867119 1.710117 -3.533702 6.029305 -1.958573 -0.000000 0.000000 0.000000 -1.401702 11.191550 10.195042 12.442044 -6.305376 0.239846 -8.696349 0.522546 -6.245668 -0.000000 0.000001 0.000000 0.000000 0.000001 0.000000 0.631039 -5.840760 1.516648 10.431849 3.619454 -0.545135 -7.343119 -0.062118 0.584223 -0.000000 0.000000 -0.000000 -0.000000 0.000000 0.000000 4.930798 -0.186945 1.189459 5.772402 0.015129 1.846930 -4.185244 -0.464328 -1.102577 1.095467 -1.230453 1.264909 3.647260 -0.460036 -1.140741 -0.000001 -0.000000 0.000000 -0.000001 -0.000000 0.000000 -0.000001 -0.000000 0.000000 -0.000001 -0.000000 0.000000 -0.000001 -0.000000 0.000000 -0.000001 -0.000000 0.000000 -0.000001 -0.000000 0.000000 -0.000001 -0.000000 0.000000 -0.000001 -0.000000 0.000000 1.719616 -7.594047 -3.219612 -0.186005 -1.346903 -76.720455 6.659515 -10.570359 1.558911 -0.176131 -0.859253 2.903177 -3.809016 8.636444 12.361364 7.221232 11.487466 -1.070964 -0.000001 -0.000000 0.000001 2.432056 3.253745 -6.530366 0.004559 0.255300 -16.349062 0.000001 -0.000000 -0.000002 -1.766531 5.257176 -11.113579 0.087704 0.623514 -23.771563 0.000002 -0.000001 0.000001 -4.502389 9.478394 -7.338241 -0.051275 0.333187 -29.028109 -0.000001 -0.000000 -0.000000 -6.121590 10.629122 -18.195453 0.073741 0.231130 -29.925658 0.000001 -0.000001 0.000001 -0.000001 0.000000 0.000001 2.096362 10.057431 4.044275 1.765356 5.830600 74.336746 15.551335 15.727351 -5.180172 -6.576222 -0.883410 -0.233461 0.310594 -9.483645 -6.453202 7.388686 -11.625476 1.190173 0.000001 0.000000 0.000002 2.354863 -3.651572 9.659683 0.026952 -0.228610 19.992406 -0.000002 0.000001 -0.000001 -2.014928 -5.684661 14.865512 0.114445 -0.666940 28.304376 -0.000001 -0.000002 0.000001 -5.030314 -10.119367 12.007245 -0.008082 -0.284655 34.325905 -0.000001 -0.000001 0.000001 -6.542493 -11.351970 24.562334 0.067372 -0.214413 35.716108 0.000000 0.000001 0.000001 0.000002 0.000000 -0.000002 0.000000 -0.000000 -0.000000 0.000000 -0.000000 0.000000 0.000000 -0.000000 -0.000000 0.000000 -0.000000 -0.000000 0.000000 -0.000000 -0.000000 0.000000 -0.000000 -0.000000 0.000000 -0.000000 -0.000000 0.000000 -0.000000 -0.000000 0.000000 -0.000000 -0.000000 0.000000 -0.000000 -0.000000 -0.000000 0.000000 0.000000 -0.000000 0.000000 0.000000 -0.000000 0.000000 0.000000 
0.723697 70.813683 1.869825 -3.224963 6.097891 -2.032484 -0.000000 -0.000000 -0.000000 -2.053266 11.092960 10.052807 13.588497 -5.971556 0.262247 -9.482598 0.168668 -5.985623 -0.000000 -0.000000 -0.000000 0.000000 -0.000000 -0.000000 0.190497 -5.808278 1.242802 10.996395 3.577312 -0.548852 -7.789218 -0.119343 0.873197 0.000000 -0.000000 0.000000 0.000000 -0.000000 -0.000001 4.859886 -0.089906 1.148161 5.663107 0.098080 1.793986 -4.106647 -0.372061 -1.093296 1.114710 -1.305585 1.403378 3.352986 -0.503627 -1.026030 0.000000 -0.000000 -0.000000 0.000000 -0.000000 -0.000000 0.000000 -0.000000 -0.000000 0.000000 -0.000000 -0.000000 -0.000001 -0.000000 0.000000 0.000000 -0.000000 -0.000000 -0.000001 -0.000000 0.000000 0.000000 -0.000000 -0.000000 0.000000 -0.000000 -0.000000 1.705715 -7.455519 -3.217938 0.138318 -1.014338 -76.474951 6.922843 -10.241740 1.287019 -0.133491 -1.044108 2.671860 -3.780038 8.824497 12.394116 7.004596 11.334177 -0.881560 0.000002 -0.000000 -0.000004 2.475387 2.829067 -6.805624 0.003694 0.243371 -16.080297 0.000005 0.000001 -0.000002 -1.583141 4.804768 -11.399803 0.071519 0.590762 -23.226700 0.000002 0.000000 -0.000003 -4.099904 8.840392 -7.703861 -0.054153 0.317171 -28.410790 -0.000001 0.000000 -0.000001 -5.779793 9.866987 -17.870563 0.068731 0.224373 -29.451714 -0.000000 -0.000000 0.000001 0.000000 0.000000 -0.000001 2.065809 9.838360 4.156808 1.531110 6.079753 73.780789 15.515970 15.592717 -5.012828 -6.784691 -0.827295 -0.031278 0.740120 -9.710417 -6.647244 7.358644 -11.627618 1.139050 -0.000002 -0.000001 -0.000000 2.353259 -3.670683 10.423138 0.027702 -0.228907 20.804410 -0.000001 -0.000001 -0.000002 -2.034403 -5.706874 15.637914 0.122322 -0.663088 29.139971 0.000001 -0.000002 -0.000001 -5.068391 -10.154744 12.753100 -0.007357 -0.287626 35.172448 0.000001 0.000000 -0.000004 -6.584335 -11.399062 25.335924 0.070007 -0.213529 36.557331 0.000002 -0.000000 -0.000003 0.000000 -0.000001 -0.000001 0.000000 -0.000000 -0.000000 0.000000 -0.000000 -0.000000 0.000000 -0.000000 -0.000000 0.000000 -0.000000 -0.000000 0.000000 -0.000000 -0.000000 0.000000 -0.000000 -0.000000 0.000000 -0.000000 -0.000000 0.000000 -0.000000 -0.000000 0.000000 -0.000000 -0.000000 0.000000 -0.000000 -0.000000 -0.000000 -0.000000 -0.000000 -0.000000 -0.000000 -0.000000 -0.000000 -0.000000 -0.000000 
